<?xml version="1.0" standalone="no"?>
<!DOCTYPE svg PUBLIC "-//W3C//DTD SVG 20010904//EN"
 "http://www.w3.org/TR/2001/REC-SVG-20010904/DTD/svg10.dtd">
<svg version="1.0" xmlns="http://www.w3.org/2000/svg"
 width="535.000000pt" height="535.000000pt" viewBox="0 0 535.000000 535.000000"
 preserveAspectRatio="xMidYMid meet">
<metadata>
Created by potrace 1.11, written by Peter Selinger 2001-2013
</metadata>
<g transform="translate(0.000000,535.000000) scale(0.100000,-0.100000)"
fill="#000000" stroke="none">
<path d="M2489 5346 c-2 -2 -35 -6 -74 -10 -89 -7 -159 -17 -165 -23 -2 -2 -4
-309 -5 -681 l0 -677 -270 0 -270 0 0 606 0 607 -45 -18 c-54 -21 -257 -121
-320 -157 -230 -131 -502 -355 -684 -563 -113 -129 -250 -328 -343 -500 -46
-84 -120 -248 -125 -276 -3 -18 52 -19 1727 -19 l1730 0 3 -968 2 -967 -974 0
-973 0 -1 523 c0 287 2 529 4 538 4 14 34 16 272 15 l267 -1 1 -255 c1 -140 2
-261 3 -267 1 -10 97 -13 431 -13 l430 0 0 424 0 424 -22 3 c-35 6 -3047 4
-3052 -2 -3 -3 -12 -57 -20 -120 -13 -109 -16 -516 -3 -579 3 -14 8 -47 11
-75 3 -27 13 -86 21 -129 8 -44 18 -93 21 -110 3 -17 12 -53 20 -81 92 -303
154 -451 282 -675 30 -52 142 -223 152 -230 3 -3 17 -21 30 -40 13 -19 27 -37
30 -40 3 -3 27 -32 55 -65 64 -77 222 -236 305 -305 36 -30 67 -57 70 -60 14
-16 195 -142 260 -182 298 -183 672 -322 980 -364 25 -3 48 -8 51 -10 30 -18
508 -25 654 -10 361 36 739 159 1055 344 89 52 222 138 259 167 9 8 51 41 94
75 96 77 282 260 366 361 322 388 533 866 596 1349 3 25 8 61 11 80 10 63 12
443 3 530 -10 99 -17 155 -24 190 -3 14 -8 41 -11 60 -23 134 -94 374 -151
515 -62 151 -198 406 -265 495 -11 14 -42 57 -70 95 -110 150 -300 350 -444
466 -391 318 -865 525 -1334 584 -25 3 -61 8 -80 11 -38 6 -466 15 -471 10z"/>
</g>
</svg>
